<?xml version="1.0" standalone="no"?>
<!DOCTYPE svg PUBLIC "-//W3C//DTD SVG 20010904//EN"
 "http://www.w3.org/TR/2001/REC-SVG-20010904/DTD/svg10.dtd">
<svg version="1.0" xmlns="http://www.w3.org/2000/svg"
 width="700.000000pt" height="700.000000pt" viewBox="0 0 700.000000 700.000000"
 preserveAspectRatio="xMidYMid meet">
<metadata>
Created by potrace 1.11, written by Peter Selinger 2001-2013
</metadata>
<g transform="translate(0.000000,700.000000) scale(0.100000,-0.100000)"
fill="#000000" stroke="none">
<path d="M3761 6814 c-69 -18 -143 -56 -206 -104 -50 -39 -91 -52 -190 -64
-27 -3 -61 -8 -75 -10 -14 -3 -47 -7 -75 -10 -27 -3 -81 -10 -120 -16 -38 -6
-83 -13 -98 -15 -49 -7 -102 -15 -127 -20 -13 -3 -42 -7 -65 -11 -81 -12 -383
-76 -470 -100 -230 -64 -452 -151 -632 -248 -130 -71 -137 -72 -161 -42 -18
23 -23 25 -71 17 -38 -6 -61 -17 -85 -40 -17 -17 -38 -31 -44 -31 -7 0 -23 -9
-35 -21 -41 -39 -102 -68 -237 -114 -138 -47 -211 -81 -217 -101 -2 -7 16 -13
47 -16 28 -3 54 -8 58 -12 4 -4 -6 -19 -23 -33 -64 -54 -111 -99 -136 -133
-26 -36 -124 -195 -147 -240 -7 -14 -55 -83 -107 -154 -117 -160 -177 -275
-211 -403 -14 -54 -37 -134 -50 -178 -39 -124 -31 -208 26 -265 12 -12 22 -32
21 -44 -1 -11 -3 -118 -5 -236 -2 -118 -7 -244 -11 -280 -4 -36 -7 -78 -6 -95
2 -44 55 -114 118 -160 88 -63 224 -205 287 -300 79 -118 137 -250 161 -361 2
-11 15 -66 29 -124 27 -110 61 -298 71 -388 20 -181 23 -251 20 -467 -2 -132
-7 -257 -10 -277 l-7 -38 55 0 c40 0 58 -5 70 -18 26 -29 21 -68 -12 -91 -27
-19 -28 -25 -27 -88 0 -64 2 -69 28 -80 41 -18 35 -37 -24 -74 -44 -28 -63
-34 -122 -37 -39 -2 -74 -7 -79 -11 -4 -4 19 -18 50 -31 150 -61 206 -127 203
-234 -3 -121 -2 -156 6 -236 20 -203 3 -276 -87 -375 -63 -70 -64 -74 -61
-219 1 -63 47 -101 122 -99 101 2 118 46 120 303 4 412 3 509 -5 640 -17 267
-9 359 42 465 28 59 70 107 136 158 52 39 71 45 91 24 38 -37 48 -69 51 -150
3 -91 14 -248 21 -287 2 -14 6 -50 10 -80 3 -30 8 -64 10 -75 3 -11 7 -35 10
-54 6 -36 6 -36 29 -131 81 -335 241 -502 505 -524 412 -35 718 -23 1035 39
164 32 326 135 412 263 73 108 216 479 288 747 35 129 65 181 118 206 64 29
107 25 229 -17 25 -9 89 -140 152 -314 59 -160 111 -273 147 -319 l21 -26 -7
60 c-3 33 -19 100 -35 150 -52 163 -60 199 -66 275 -8 96 8 178 48 260 36 75
119 162 193 204 28 16 66 41 85 56 74 58 179 106 285 129 98 22 114 24 370 48
146 13 483 7 708 -13 112 -9 217 -67 265 -147 26 -42 60 -143 67 -198 3 -24 8
-62 11 -84 12 -84 6 -354 -11 -445 -2 -14 -7 -44 -10 -68 -22 -159 -86 -310
-168 -394 -83 -86 -179 -134 -337 -168 -47 -11 -125 -28 -175 -39 -366 -80
-647 -52 -887 90 -98 59 -133 90 -203 184 -50 68 -54 71 -93 70 l-41 0 31 -55
c141 -252 393 -392 713 -393 61 0 269 11 315 17 27 4 239 42 280 51 14 3 39 8
55 10 144 26 314 99 392 170 101 90 176 249 198 415 3 19 7 46 9 60 8 37 13
85 30 255 7 65 16 185 21 255 18 296 13 268 61 350 43 72 55 127 36 156 -4 7
-38 15 -77 19 -38 3 -79 8 -90 10 -11 2 -45 7 -75 10 -30 3 -82 9 -115 14 -33
5 -130 9 -215 9 -144 1 -175 3 -218 16 -16 5 -52 10 -157 25 -82 11 -293 4
-400 -13 -205 -33 -358 -77 -789 -226 -194 -67 -231 -75 -302 -68 -5 1 -37
-11 -70 -27 -54 -26 -67 -28 -164 -27 -257 5 -372 35 -825 217 -312 125 -393
148 -510 148 -91 0 -123 -8 -365 -93 -168 -59 -434 -133 -523 -145 -23 -3 -53
-8 -67 -10 -14 -3 -52 -7 -85 -11 -221 -22 -285 -69 -299 -218 -3 -32 -13 -69
-21 -83 -19 -29 -71 -53 -114 -53 -42 0 -58 29 -65 123 -3 42 -9 112 -13 155
-10 97 -10 450 0 562 54 661 309 1258 742 1740 82 91 242 248 289 284 68 52
157 91 261 116 579 137 873 235 1035 344 71 47 82 61 87 108 4 36 -1 55 -30
110 l-36 66 77 -34 c42 -20 86 -39 97 -44 34 -15 109 -38 143 -43 76 -12 126
24 207 150 22 35 43 63 46 63 4 0 20 -30 35 -67 33 -78 90 -143 125 -144 13 0
31 -2 41 -4 35 -7 75 32 97 92 12 32 25 67 30 78 48 109 63 203 47 290 -29
149 -38 289 -24 344 5 18 27 50 47 70 21 20 43 46 50 59 14 26 16 90 4 152 -5
25 -8 81 -7 125 1 63 -2 87 -17 111 -11 17 -19 41 -19 53 0 16 -6 21 -25 21
-13 0 -39 13 -57 28 -82 71 -222 152 -323 187 -66 23 -195 27 -264 9z m33
-235 c104 -24 223 -96 311 -186 69 -71 140 -266 163 -448 10 -74 8 -279 -3
-330 -25 -120 -36 -135 -64 -86 -19 35 -57 132 -59 154 -10 96 -14 168 -15
287 -2 144 -2 145 -38 220 -60 126 -172 233 -302 288 -58 25 -73 26 -237 28
-96 1 -209 3 -250 3 l-75 2 35 15 c173 75 360 94 534 53z m-1011 -4564 c65 -3
126 -8 135 -10 10 -1 46 -6 82 -9 36 -4 76 -9 90 -11 14 -3 45 -7 70 -10 25
-3 56 -7 70 -10 14 -3 36 -7 50 -10 274 -50 279 -54 250 -230 -6 -38 -13 -83
-16 -100 -2 -16 -6 -41 -9 -55 -2 -14 -7 -45 -10 -70 -3 -25 -10 -70 -15 -100
-5 -30 -11 -72 -14 -92 -8 -50 -17 -106 -21 -128 -2 -10 -7 -40 -10 -67 -4
-26 -18 -72 -31 -101 -13 -29 -35 -78 -48 -110 -74 -175 -171 -285 -310 -352
-138 -66 -185 -73 -490 -75 -348 -2 -457 12 -584 72 -133 64 -241 216 -282
398 -7 28 -14 59 -16 70 -31 131 -46 260 -49 410 -5 261 18 361 104 438 68 61
134 87 306 122 85 17 107 20 255 31 52 4 96 7 97 8 5 4 290 -2 396 -9z m-1334
-294 c-3 -6 -10 -7 -18 -2 -7 5 -10 14 -6 21 9 14 29 -2 24 -19z"/>
</g>
</svg>
