<?xml version="1.0" encoding="utf-8"?>
<!-- Generator: Adobe Illustrator 22.1.0, SVG Export Plug-In . SVG Version: 6.00 Build 0)  -->
<svg version="1.1" id="Layer_1" xmlns="http://www.w3.org/2000/svg" xmlns:xlink="http://www.w3.org/1999/xlink" x="0px" y="0px"
	 viewBox="0 0 50 50" style="enable-background:new 0 0 50 50;" xml:space="preserve">
<style type="text/css">
	.st0{fill:#201750;}
</style>
<path class="st0" d="M10.9,5.7c0.2,0.6,0.6,0.3,0.9,0.1c3.8-2.2,8.1-2.7,12.4-3.3c0.3,0,0.7-0.1,0.9-0.2c2.1-1.8,4-1.1,5.8,0.3l0,0
	c0.2,0.2,0.4,0.4,0.7,0.3l0,0c0,0.3,0.1,0.5,0.3,0.7l0,0c0,0.3,0,0.7,0,1c-0.1,0.7,0.6,1.4-0.5,2.2c-0.4,0.3-0.2,1.9,0,2.8
	c0.2,1-0.2,1.7-0.5,2.5c-0.1,0.4-0.2,0.7-0.7,0.8c-0.5,0-0.8-0.2-1-0.6c-0.2-0.3-0.3-0.7-0.5-1c-1.2,2-1.2,2-4.1,0.7
	c1,1.4,0.6,1.7-0.7,2.4c-2.3,1.1-4.7,1.6-7.2,2.2c-0.7,0.2-1.4,0.6-1.9,1.1C9.2,22.9,7.1,29.5,8,37.1c0,0.3,0,0.7,0.4,0.7
	c0.5,0,1-0.3,1-0.9c0-1.3,0.9-1.5,1.8-1.6c2.2-0.2,4.4-0.9,6.5-1.7c1.1-0.4,2.3-0.2,3.5,0.3c2.1,0.8,4.2,1.9,6.5,2.1
	c0.3,0,0.6,0,1,0c0.6,0.2,1-0.3,1.5-0.4c0.4,0.1,0.7,0.1,1.1-0.1c3.6-1.2,7.1-2.8,11-1.8c0.6,0.1,1.2,0,1.8,0
	c1.2,0.1,2.3,0.3,3.5,0.4C47.9,35,47,35.4,47,36c-0.1,1.7-0.2,3.4-0.4,5c-0.4,3.3-1.4,4.5-4.7,5.1c-1.4,0.3-2.8,0.5-4.2,0.5
	c-2.5,0-4.3-1-5.4-3.2c0.2,0,0.4,0,0.6,0c0.4,0.6,0.9,1.3,1.6,1.7c2.4,1.5,5,1.2,7.6,0.5c1.9-0.3,3.1-1.2,3.6-3.1
	c0.4-1.7,0.5-3.3,0.3-5c-0.2-1.6-0.9-2.7-2.8-2.7c-1.4,0-2.9-0.3-4.2-0.1c-1.8,0.2-3.8,0.1-5.4,1.5c-1.7,0.8-2.5,2.5-1.9,4.5
	c0.2,0.8,0.6,1.6,0.6,2.5c-1.1-1.4-1.2-3.2-2.2-4.7c-1.4-0.6-2.2-0.3-2.5,1.1c-0.4,1.6-1,3.1-1.6,4.6s-1.7,2.4-3.3,2.8
	c-2.6,0.6-5.2,0.5-7.8,0.3c-1.5-0.2-2.6-1.2-3.1-2.8c-0.5-1.5-0.7-3.1-0.8-4.7c-0.1-0.7,0.2-1.5-0.6-1.9c0-0.1-0.1-0.3-0.1-0.4
	c-0.1,0-0.1,0.1-0.2,0.1c0.1,0.1,0.2,0.2,0.3,0.3c-2,1.1-1.9,2.9-1.7,4.8c0.1,1.9,0,3.7,0,5.6c0,0.6-0.2,1.1-0.9,1.1
	C6.7,49.3,7,48.5,7,48c0-0.2,0-0.5,0.1-0.6C8.8,46.2,7.8,44.5,8,43c0.2-1.3-0.8-1.7-1.9-2.1c0.4-0.3,1.1,0.1,1.5-0.4
	C7.8,40.4,8,40.4,8,40.1C8,40,7.8,40,7.6,39.9c0-0.3,0-0.7,0-1c0.3-0.1,0.5-0.3,0.4-0.6c-0.2-0.5-0.7-0.2-1-0.3
	c0.4-3.3,0-6.6-0.9-9.8C5.6,26.6,4.5,25.1,3,24c-0.4-0.3-0.9-0.7-0.8-1.5c0.3-1.3-0.1-2.6,0.2-3.9c0-0.1,0-0.1,0-0.2
	c-1.1-0.9-0.3-2-0.1-3c0.2-1.3,1-2.5,1.8-3.5s1.2-2.3,2.2-3.2C7.6,7.9,6.3,8.2,6,8c1-0.8,2.5-0.7,3.5-1.7c0.3,0,0.4-0.2,0.5-0.4
	C10.2,5.8,10.5,5.8,10.9,5.7z M25.3,37.1c0.1-0.4-0.2-0.7-0.5-0.8c-3.2-0.7-7.6-1.1-10.7-0.4c-1.8,0.4-2.5,1.1-2.5,3
	c-0.1,1.4,0.1,2.7,0.4,4.1c0.6,2.5,1.8,3.5,4.4,3.6c1.1,0,2.3,0.1,3.4,0c3.5-0.3,4-2.8,4.6-4c0-0.1,0.1-0.2,0.1-0.3L25.3,37.1z
	 M23,3.5c1,0,1.9,0.1,2.8,0c1.8-0.1,3.8,1.8,3.7,3.6c-0.1,1.8,0.1,2.9,0.7,3.7c0.8-1.8,0.2-5.5-1-6.6C27.7,2.7,25.4,2.4,23,3.5z"/>
</svg>
