<?xml version="1.0" encoding="utf-8"?>
<!-- Generator: Adobe Illustrator 22.1.0, SVG Export Plug-In . SVG Version: 6.00 Build 0)  -->
<svg version="1.1" id="Layer_1" xmlns="http://www.w3.org/2000/svg" xmlns:xlink="http://www.w3.org/1999/xlink" x="0px" y="0px"
	 viewBox="0 0 531 149.6" style="enable-background:new 0 0 531 149.6;" xml:space="preserve">
<style type="text/css">
	.st0{fill:#FFFFFF;}
</style>
<path class="st0" d="M50.8,36.8c0.5,1.2,1.1,0.6,1.8,0.2c7.7-4.5,16.3-5.5,24.9-6.6c0.6-0.1,1.4-0.1,1.9-0.5c4.1-3.6,8-2.3,11.8,0.6
	l0,0c0.3,0.5,0.8,0.7,1.4,0.7l0,0c0,0.6,0.2,1.1,0.7,1.4l0-0.1c0,0.7,0.1,1.3,0,2c-0.1,1.4,1.3,2.9-0.9,4.3c-0.9,0.6-0.4,3.8,0,5.6
	c0.4,1.9-0.4,3.4-0.9,5C91.1,50.3,91,51,90,51c-1,0.1-1.7-0.4-2.1-1.3c-0.3-0.7-0.6-1.3-1-2c-2.4,4-2.4,4-8.3,1.4
	c2,2.7,1.3,3.4-1.5,4.8c-4.7,2.3-9.5,3.2-14.4,4.4c-1.4,0.3-2.8,1.2-3.9,2.3C47.5,71.4,43.3,84.6,45,99.9c0.1,0.6-0.1,1.5,0.9,1.4
	c1.1,0,2.1-0.6,2.1-1.7c0-2.6,1.7-3.1,3.7-3.2c4.5-0.4,8.8-1.8,13-3.3c2.3-0.8,4.6-0.3,7,0.5c4.3,1.6,8.4,3.9,13.1,4.3
	c0.6,0.1,1.3-0.1,2-0.1c1.2,0.4,2-0.5,3.1-0.7c0.8,0.3,1.5,0.1,2.2-0.1c7.2-2.4,14.2-5.6,22.1-3.7c1.1,0.3,2.4,0,3.6,0
	c2.4,0.3,4.7,0.6,7.1,0.9c0.5,1.6-1.1,2.3-1.3,3.6c-0.3,3.4-0.4,6.8-0.8,10.1c-0.8,6.7-2.9,9-9.4,10.3c-2.8,0.5-5.6,1-8.5,0.9
	c-4.9-0.1-8.6-2-10.8-6.5c0.4,0,0.8,0,1.2-0.1c0.9,1.3,1.7,2.6,3.2,3.4c4.9,3,10.1,2.4,15.3,1c3.7-0.5,6.2-2.5,7.2-6.2
	c0.8-3.3,1.1-6.7,0.6-10.1c-0.4-3.2-1.9-5.5-5.6-5.5c-2.8,0-5.7-0.6-8.5-0.3c-3.7,0.5-7.7,0.2-10.9,3c-3.5,1.5-4.9,5-3.8,9.1
	c0.5,1.6,1.2,3.2,1.1,5c-2.2-2.8-2.5-6.5-4.5-9.4c-2.7-1.2-4.4-0.6-5.1,2.1c-0.8,3.2-1.9,6.3-3.1,9.3c-1.2,3.1-3.4,4.9-6.7,5.6
	c-5.2,1.2-10.5,1.1-15.7,0.5c-2.9-0.3-5.3-2.5-6.2-5.6c-1-3.1-1.4-6.2-1.7-9.4c-0.1-1.3,0.3-2.9-1.2-3.9c-0.1-0.3-0.1-0.5-0.2-0.8
	c-0.1,0.1-0.2,0.2-0.4,0.2c0.2,0.2,0.4,0.3,0.6,0.5c-3.9,2.2-3.7,5.9-3.5,9.7c0.2,3.7,0,7.5,0,11.2c0,1.3-0.5,2.3-1.8,2.3
	c-1.8,0-1.1-1.5-1.2-2.5c0-0.4-0.1-1.1,0.2-1.3c3.5-2.3,1.4-5.8,1.9-8.8c0.4-2.7-1.7-3.5-3.8-4.2c0.9-0.6,2.2,0.3,2.9-0.9
	c0.4-0.1,0.9-0.3,0.7-0.8c-0.1-0.2-0.5-0.3-0.8-0.4c0-0.7,0-1.4,0-2.1c0.5-0.2,1-0.6,0.8-1.2c-0.3-0.9-1.2-0.5-1.9-0.5
	c0.8-6.7,0-13.3-1.8-19.7c-0.9-3.3-3.2-6.3-6.3-8.4c-0.9-0.6-1.9-1.3-1.5-2.9c0.5-2.6-0.2-5.3,0.5-7.9c0-0.1,0.1-0.3,0-0.3
	c-2.3-1.9-0.5-4-0.2-6c0.4-2.7,2-5,3.7-7c1.7-2,2.5-4.6,4.5-6.4c2.3-2-0.3-1.4-1-1.8c2.1-1.7,5.1-1.5,7-3.5c0.6,0,0.8-0.3,0.9-0.9
	C49.6,37,50.2,36.9,50.8,36.8z M79.9,100c0.1-0.7-0.4-1.4-1.1-1.6c-6.5-1.5-15.3-2.3-21.5-0.8c-3.7,0.9-4.9,2.3-5.1,6.1
	c-0.1,2.8,0.2,5.5,0.8,8.2c1.2,5.1,3.6,7,8.8,7.2c2.3,0.1,4.6,0.2,6.9,0c7.1-0.6,8.1-5.6,9.3-8.1c0.1-0.2,0.2-0.4,0.2-0.6L79.9,100z
	 M75.3,32.4c1.9,0,3.8,0.1,5.6,0c3.7-0.2,7.6,3.6,7.4,7.3c-0.3,3.7,0.2,5.8,1.5,7.5c1.5-3.5,0.4-11-2-13.3
	C84.6,30.7,80.1,30.2,75.3,32.4z"/>
<g>
	<path class="st0" d="M173,105.5c-2.3,0-4.4-0.6-6.3-1.8c-1.9-1.2-3.4-2.7-4.6-4.7c-1.1-2-1.7-4.1-1.7-6.5v-3c0-0.2,0.1-0.3,0.3-0.3
		h7.2c0.2,0,0.3,0.1,0.3,0.3v3c0,1.4,0.5,2.6,1.4,3.6c0.9,1,2.1,1.5,3.4,1.5c1.3,0,2.5-0.5,3.4-1.5c0.9-1,1.4-2.2,1.4-3.6
		c0-1.6-1-3-3.1-4.1c-0.7-0.4-1.8-1-3.2-1.8c-1.5-0.8-2.8-1.6-4.1-2.3c-2.4-1.4-4.1-3.1-5.2-5.2c-1.1-2.1-1.7-4.4-1.7-7
		c0-2.4,0.6-4.6,1.7-6.5c1.2-1.9,2.7-3.4,4.6-4.5c1.9-1.1,4-1.7,6.2-1.7c2.3,0,4.4,0.6,6.3,1.7c1.9,1.1,3.4,2.7,4.6,4.6
		c1.1,1.9,1.7,4,1.7,6.4v5.3c0,0.2-0.1,0.3-0.3,0.3h-7.2c-0.2,0-0.3-0.1-0.3-0.3l-0.1-5.3c0-1.5-0.5-2.7-1.4-3.7
		c-0.9-0.9-2.1-1.4-3.3-1.4c-1.3,0-2.5,0.5-3.4,1.5c-0.9,1-1.4,2.2-1.4,3.6c0,1.4,0.3,2.6,0.9,3.5c0.6,0.9,1.7,1.8,3.3,2.7
		c0.2,0.1,0.6,0.4,1.3,0.7c0.6,0.3,1.3,0.7,2,1.1c0.7,0.4,1.4,0.8,2,1.1c0.6,0.3,0.9,0.5,1.1,0.6c2.1,1.2,3.8,2.7,5.1,4.4
		c1.2,1.7,1.9,3.9,1.9,6.4c0,2.4-0.6,4.6-1.7,6.6c-1.1,2-2.7,3.5-4.6,4.6C177.4,104.9,175.3,105.5,173,105.5z"/>
	<path class="st0" d="M186.7,104.5l8-44.2c0-0.2,0.1-0.3,0.3-0.3h9.3c0.2,0,0.3,0.1,0.3,0.3l7.7,44.2c0,0.2,0,0.3-0.3,0.3h-7.1
		c-0.2,0-0.3-0.1-0.3-0.3l-0.7-4.7h-8.8l-0.7,4.7c0,0.2-0.2,0.3-0.3,0.3h-7.1C186.8,104.9,186.7,104.8,186.7,104.5z M196.4,93h6.2
		l-2.6-18.1l-0.4-2.4l-0.3,2.4L196.4,93z"/>
	<path class="st0" d="M216.6,104.9c-0.2,0-0.3-0.1-0.3-0.3l0.1-44.2c0-0.2,0.1-0.3,0.3-0.3h7.9c0.2,0,0.3,0.1,0.5,0.3l5.9,8.5
		l5.9-8.5c0.1-0.2,0.3-0.3,0.5-0.3h7.9c0.2,0,0.3,0.1,0.3,0.3l0.1,44.2c0,0.2-0.1,0.3-0.3,0.3H238c-0.2,0-0.3-0.1-0.3-0.3l-0.1-32.8
		l-6.8,9.8l-6.7-9.8l-0.1,32.8c0,0.2-0.1,0.3-0.3,0.3H216.6z"/>
	<path class="st0" d="M262.8,105.5c-2.3,0-4.4-0.6-6.3-1.8c-1.9-1.2-3.5-2.8-4.6-4.7c-1.1-2-1.7-4.1-1.7-6.5l0.1-32.2
		c0-0.2,0.1-0.3,0.3-0.3h7.2c0.2,0,0.3,0.1,0.3,0.3v32.2c0,1.5,0.5,2.7,1.4,3.7c0.9,1,2,1.5,3.4,1.5c1.4,0,2.5-0.5,3.4-1.5
		c0.9-1,1.4-2.2,1.4-3.7V60.3c0-0.2,0.1-0.3,0.3-0.3h7.2c0.2,0,0.3,0.1,0.3,0.3l0.1,32.2c0,2.4-0.6,4.6-1.7,6.6
		c-1.1,2-2.7,3.5-4.6,4.7C267.3,104.9,265.1,105.5,262.8,105.5z"/>
	<path class="st0" d="M280.8,104.9c-0.2,0-0.3-0.1-0.3-0.3l0.1-44.2c0-0.2,0.1-0.3,0.3-0.3h20.7c0.2,0,0.3,0.1,0.3,0.3v7.2
		c0,0.2-0.1,0.3-0.3,0.3h-13.2v10h13.2c0.2,0,0.3,0.1,0.3,0.3l0.1,7.3c0,0.2-0.1,0.3-0.3,0.3h-13.3V97h13.3c0.2,0,0.3,0.1,0.3,0.3
		v7.3c0,0.2-0.1,0.3-0.3,0.3H280.8z"/>
	<path class="st0" d="M307.8,104.9c-0.2,0-0.3-0.1-0.3-0.3l0.1-44.2c0-0.2,0.1-0.3,0.3-0.3h7.1c0.2,0,0.3,0.1,0.3,0.3L315.4,97h13.3
		c0.2,0,0.3,0.1,0.3,0.3v7.3c0,0.2-0.1,0.3-0.3,0.3H307.8z"/>
	<path class="st0" d="M340.4,104.9c-0.2,0-0.3-0.1-0.3-0.3l0.1-44.2c0-0.2,0.1-0.3,0.3-0.3h12.4c3.9,0,7.1,1.2,9.4,3.6
		c2.3,2.4,3.4,5.7,3.4,9.8c0,3-0.6,5.7-1.8,7.9c-1.2,2.2-2.8,3.9-4.7,5.1c-1.9,1.2-4,1.8-6.3,1.8h-4.9v16.2c0,0.2-0.1,0.3-0.3,0.3
		H340.4z M347.9,80.5h4.9c1.4,0,2.6-0.7,3.6-2c1-1.3,1.5-3,1.5-5.1c0-1.7-0.5-3-1.4-4.1c-0.9-1.1-2.1-1.6-3.7-1.6l-4.9,0.1V80.5z"/>
	<path class="st0" d="M364.1,104.5l8-44.2c0-0.2,0.1-0.3,0.3-0.3h9.3c0.2,0,0.3,0.1,0.3,0.3l7.7,44.2c0,0.2,0,0.3-0.3,0.3h-7.1
		c-0.2,0-0.3-0.1-0.3-0.3l-0.7-4.7h-8.8l-0.7,4.7c0,0.2-0.2,0.3-0.3,0.3h-7.1C364.2,104.9,364.1,104.8,364.1,104.5z M373.8,93h6.2
		l-2.6-18.1l-0.4-2.4l-0.3,2.4L373.8,93z"/>
	<path class="st0" d="M394,104.9c-0.2,0-0.3-0.1-0.3-0.3l0.1-44.2c0-0.2,0.1-0.3,0.3-0.3h7.1c0.2,0,0.3,0.1,0.3,0.3L401.5,97h13.3
		c0.2,0,0.3,0.1,0.3,0.3v7.3c0,0.2-0.1,0.3-0.3,0.3H394z"/>
	<path class="st0" d="M419.6,104.9c-0.2,0-0.3-0.1-0.3-0.3l0.1-44.2c0-0.2,0.1-0.3,0.3-0.3h7.9c0.2,0,0.3,0.1,0.5,0.3l5.9,8.5
		l5.9-8.5c0.1-0.2,0.3-0.3,0.5-0.3h7.9c0.2,0,0.3,0.1,0.3,0.3l0.1,44.2c0,0.2-0.1,0.3-0.3,0.3h-7.3c-0.2,0-0.3-0.1-0.3-0.3
		l-0.1-32.8l-6.8,9.8l-6.7-9.8l-0.1,32.8c0,0.2-0.1,0.3-0.3,0.3H419.6z"/>
	<path class="st0" d="M454.1,104.9c-0.2,0-0.3-0.1-0.3-0.3l0.1-44.2c0-0.2,0.1-0.3,0.3-0.3h20.7c0.2,0,0.3,0.1,0.3,0.3v7.2
		c0,0.2-0.1,0.3-0.3,0.3h-13.2v10h13.2c0.2,0,0.3,0.1,0.3,0.3l0.1,7.3c0,0.2-0.1,0.3-0.3,0.3h-13.3V97h13.3c0.2,0,0.3,0.1,0.3,0.3
		v7.3c0,0.2-0.1,0.3-0.3,0.3H454.1z"/>
	<path class="st0" d="M481.2,104.9c-0.2,0-0.3-0.1-0.3-0.3l0.1-44.2c0-0.2,0.1-0.3,0.3-0.3h13c2.3,0,4.5,0.6,6.4,1.7
		c2,1.1,3.5,2.7,4.7,4.6c1.2,1.9,1.7,4.1,1.7,6.5c0,1.6-0.2,3-0.7,4.3c-0.5,1.3-1,2.3-1.7,3.2c-0.6,0.9-1.2,1.5-1.7,2
		c2.3,2.6,3.5,5.6,3.5,9.1l0.1,13.2c0,0.2-0.1,0.3-0.3,0.3H499c-0.2,0-0.3-0.1-0.3-0.2V91.4c0-1.5-0.5-2.9-1.6-4
		c-1.1-1.1-2.4-1.7-4-1.7h-4.2l-0.1,18.9c0,0.2-0.1,0.3-0.3,0.3H481.2z M488.8,77.9h5.5c1.3,0,2.5-0.5,3.5-1.5c1-1,1.5-2.2,1.5-3.6
		c0-1.4-0.5-2.6-1.5-3.5c-1-1-2.2-1.5-3.6-1.5h-5.5V77.9z"/>
</g>
</svg>
